<svg id="Layer_1" data-name="Layer 1" xmlns="http://www.w3.org/2000/svg" viewBox="0 0 460 90"><defs><style>.cls-1,.cls-2{fill:#fff;}.cls-2{opacity:0.5;}.cls-3{fill:#46c4d7;}.cls-4{fill:#2a5aa9;}.cls-5{fill:#fdb956;}.cls-6{fill:none;}</style></defs><path class="cls-1" d="M118.64,31.58A13.8,13.8,0,0,1,124,36a16.09,16.09,0,0,1,2.75,6.68H116.12a5.83,5.83,0,0,0-2.07-2.48,5.45,5.45,0,0,0-3.07-.89,4.83,4.83,0,0,0-4,1.91,8.21,8.21,0,0,0-1.47,5.13A8.2,8.2,0,0,0,107,51.5a4.83,4.83,0,0,0,4,1.91,5.45,5.45,0,0,0,3.07-.89A5.77,5.77,0,0,0,116.12,50h10.63A16.09,16.09,0,0,1,124,56.72a13.8,13.8,0,0,1-5.36,4.43,17.13,17.13,0,0,1-7.47,1.57,16.59,16.59,0,0,1-8.45-2.07,13.88,13.88,0,0,1-5.52-5.79,18.17,18.17,0,0,1-1.93-8.5,18.13,18.13,0,0,1,1.93-8.49,13.88,13.88,0,0,1,5.52-5.79A16.59,16.59,0,0,1,111.17,30,17.13,17.13,0,0,1,118.64,31.58Z"/><path class="cls-1" d="M154.37,31.9a15.68,15.68,0,0,1,6,5.88,16.48,16.48,0,0,1,2.2,8.49,16.52,16.52,0,0,1-2.2,8.5,15.91,15.91,0,0,1-6,5.91,17.28,17.28,0,0,1-16.62,0,16,16,0,0,1-6-5.91,16.35,16.35,0,0,1-2.23-8.5,16.31,16.31,0,0,1,2.23-8.49,15.74,15.74,0,0,1,6-5.88,17.41,17.41,0,0,1,16.65,0Zm-13,9.13a7.83,7.83,0,0,0-1.63,5.24,7.81,7.81,0,0,0,1.63,5.21,6.59,6.59,0,0,0,9.32,0,7.81,7.81,0,0,0,1.63-5.21A7.83,7.83,0,0,0,150.69,41a6.59,6.59,0,0,0-9.32,0Z"/><path class="cls-1" d="M174.63,30.33l6.63,22.12,6.59-22.12h10.72L187.76,62.49h-13L163.91,30.33Z"/><path class="cls-1" d="M210.92,30.33V62.49H200.84V30.33Z"/><path class="cls-1" d="M243.54,54.59a14.72,14.72,0,0,1-5.84,5.79,17.83,17.83,0,0,1-8.83,2.11h-13.4V30.33h13.4a18.36,18.36,0,0,1,8.83,2,14.4,14.4,0,0,1,5.84,5.68,16.6,16.6,0,0,1,2.05,8.27A16.79,16.79,0,0,1,243.54,54.59Zm-10.17-3a6.9,6.9,0,0,0,2-5.31,6.94,6.94,0,0,0-2-5.32A7.65,7.65,0,0,0,228,39.14h-2.41V53.5H228A7.61,7.61,0,0,0,233.37,51.63Z"/><path class="cls-1" d="M278.09,58a9.76,9.76,0,0,1-4.16,3.53,15,15,0,0,1-6.49,1.29,15.88,15.88,0,0,1-9.52-2.7,10,10,0,0,1-4.07-7.93h10.72c.16,1.85,1,2.77,2.46,2.77a1.88,1.88,0,0,0,1.25-.41,1.45,1.45,0,0,0,.47-1.18,2,2,0,0,0-1.15-1.79A23.59,23.59,0,0,0,263.85,50a34,34,0,0,1-5.07-2,10.19,10.19,0,0,1-3.52-3.09,8.74,8.74,0,0,1-1.5-5.31,8.77,8.77,0,0,1,1.62-5.34,9.94,9.94,0,0,1,4.4-3.34,16.51,16.51,0,0,1,6.29-1.14c3.85,0,6.91.9,9.18,2.68A10.15,10.15,0,0,1,279,40.19H268.12c-.15-1.7-.85-2.55-2.09-2.55a1.47,1.47,0,0,0-1,.39,1.53,1.53,0,0,0-.41,1.16,2,2,0,0,0,1.16,1.7,23.77,23.77,0,0,0,3.61,1.52,39.7,39.7,0,0,1,5.12,2.16A10.66,10.66,0,0,1,278,47.7a8.75,8.75,0,0,1,1.52,5.3A9.06,9.06,0,0,1,278.09,58Z"/><path class="cls-1" d="M310.18,36.87V62.49H300.1v-3.9a9,9,0,0,1-7.86,4.08,8.48,8.48,0,0,1-6.88-3,12,12,0,0,1-2.48-8V36.87h10V50.45a4.11,4.11,0,0,0,1,2.89,3.75,3.75,0,0,0,5.25,0,4.19,4.19,0,0,0,1-2.89V36.87Z"/><path class="cls-1" d="M337.26,38.12a10.57,10.57,0,0,1,3.79,4.54,16.44,16.44,0,0,1,1.39,7,16.37,16.37,0,0,1-1.39,7,10.57,10.57,0,0,1-3.79,4.54,9.68,9.68,0,0,1-5.41,1.57,8.56,8.56,0,0,1-4.29-1,6.92,6.92,0,0,1-2.75-2.8V74.76H314.73V36.87h10.08v3.5a7.05,7.05,0,0,1,2.75-2.8,8.56,8.56,0,0,1,4.29-1A9.68,9.68,0,0,1,337.26,38.12ZM325.81,46.5a4.51,4.51,0,0,0-1,3.18,4.51,4.51,0,0,0,1,3.18,3.72,3.72,0,0,0,5.36,0,4.52,4.52,0,0,0,1.05-3.18,4.52,4.52,0,0,0-1.05-3.18,3.74,3.74,0,0,0-5.36,0Z"/><path class="cls-1" d="M368.15,38.12a10.57,10.57,0,0,1,3.79,4.54,16.44,16.44,0,0,1,1.39,7,16.37,16.37,0,0,1-1.39,7,10.57,10.57,0,0,1-3.79,4.54,9.68,9.68,0,0,1-5.41,1.57,8.56,8.56,0,0,1-4.29-1A6.92,6.92,0,0,1,355.7,59V74.76H345.62V36.87H355.7v3.5a7.05,7.05,0,0,1,2.75-2.8,8.56,8.56,0,0,1,4.29-1A9.68,9.68,0,0,1,368.15,38.12ZM356.7,46.5a4.51,4.51,0,0,0-1,3.18,4.51,4.51,0,0,0,1,3.18,3.72,3.72,0,0,0,5.36,0,4.52,4.52,0,0,0,1.05-3.18,4.52,4.52,0,0,0-1.05-3.18,3.74,3.74,0,0,0-5.36,0Z"/><path class="cls-1" d="M395.63,38.14a11.66,11.66,0,0,1,4.84,4.57,13.46,13.46,0,0,1,1.75,7,13.44,13.44,0,0,1-1.75,7,11.66,11.66,0,0,1-4.84,4.57,16,16,0,0,1-13.9,0,11.63,11.63,0,0,1-4.83-4.57,13.44,13.44,0,0,1-1.75-7,13.46,13.46,0,0,1,1.75-7,11.63,11.63,0,0,1,4.83-4.57,16,16,0,0,1,13.9,0Zm-9.31,8.25a5,5,0,0,0-.95,3.29A5,5,0,0,0,386.3,53a2.94,2.94,0,0,0,2.38,1.12A3,3,0,0,0,391.05,53a5,5,0,0,0,.95-3.29,5,5,0,0,0-.95-3.29,3.06,3.06,0,0,0-4.73,0Z"/><path class="cls-1" d="M419.26,38a8.86,8.86,0,0,1,4.63-1.34V47.46H421a7.1,7.1,0,0,0-4.2,1c-.9.67-1.34,1.85-1.34,3.55V62.49H405.4V36.87h10.09v4.72A12.06,12.06,0,0,1,419.26,38Z"/><path class="cls-1" d="M442.56,53.91v8.58h-3.82q-10.53,0-10.53-10.49V45.27H425v-8.4h3.18V30.69h10.08v6.18h4.18v8.4h-4.18v6.91a1.75,1.75,0,0,0,.43,1.32,2.07,2.07,0,0,0,1.43.41Z"/><path class="cls-2" d="M96.75,68A8.2,8.2,0,0,0,87,61.7a8.56,8.56,0,0,0-2.88,1.17L79.9,58.71a19.76,19.76,0,0,0,4.49-17.38,20.38,20.38,0,0,0-4.49-9L84,28.22a8.07,8.07,0,0,0,6.29,1.17,8.24,8.24,0,1,0-9.82-6.3A8.71,8.71,0,0,0,81.61,26l-6.43,6.48S69,38.66,69,38.66a8.25,8.25,0,0,0-12.59,8.63,8.23,8.23,0,0,0,9.82,6.31,8.58,8.58,0,0,0,2.88-1.18l6.18,6.18-.09.08,5.11,5.26.51.52.87.86a8.25,8.25,0,1,0,15,2.67ZM71.26,50.18a8.09,8.09,0,0,0,1.18-6.29A8.58,8.58,0,0,0,71.26,41l6.2-6.18A16.15,16.15,0,0,1,81,42.07a16.66,16.66,0,0,1-3.51,14.29Z"/><path class="cls-3" d="M75.32,58.6l-.09.08A17.26,17.26,0,0,1,68,62.13a16.94,16.94,0,0,1-20.06-13,17.22,17.22,0,0,1,2.35-12.68,16.49,16.49,0,0,1,10.67-7.36,19.9,19.9,0,0,1,3.51-.42,16.92,16.92,0,0,1,10.74,3.81S69,38.66,69,38.66a8.25,8.25,0,0,0-12.59,8.63,8.23,8.23,0,0,0,9.82,6.31,8.58,8.58,0,0,0,2.88-1.18Z"/><circle class="cls-4" cx="64.57" cy="45.59" r="4.16"/><circle class="cls-5" cx="88.39" cy="21.08" r="4.16"/><circle class="cls-5" cx="88.74" cy="70.08" r="4.16"/><path class="cls-3" d="M44.12,30V62.13H34L23.37,46V62.13H13.3V30H23.37L34,46.42V30Z"/><line class="cls-6" x1="75.18" y1="32.46" x2="69.03" y2="38.66"/><line class="cls-6" x1="75.23" y1="58.68" x2="69.78" y2="53.06"/></svg>