<svg xmlns="http://www.w3.org/2000/svg" viewBox="0 0 418.07 46.11"><defs><style>.cls-1{fill:#fff;}.cls-2{fill:#46c4d7;}.cls-3{fill:none;}</style></defs><g id="Layer_2" data-name="Layer 2"><g id="Layer_1-2" data-name="Layer 1"><path class="cls-1" d="M94.15,2.93a13.89,13.89,0,0,1,5.36,4.43A16.15,16.15,0,0,1,102.26,14H91.63a5.83,5.83,0,0,0-2.07-2.48,5.44,5.44,0,0,0-3.07-.88,4.81,4.81,0,0,0-4,1.91A8.19,8.19,0,0,0,81,17.72a8.19,8.19,0,0,0,1.47,5.13,4.83,4.83,0,0,0,4,1.91,5.37,5.37,0,0,0,3.07-.89,5.8,5.8,0,0,0,2.07-2.47h10.63a16.15,16.15,0,0,1-2.75,6.68,14,14,0,0,1-5.36,4.43,17.29,17.29,0,0,1-7.48,1.56A16.74,16.74,0,0,1,78.22,32a13.89,13.89,0,0,1-5.51-5.8,18.13,18.13,0,0,1-1.94-8.49,18.2,18.2,0,0,1,1.94-8.5,13.92,13.92,0,0,1,5.51-5.79,16.64,16.64,0,0,1,8.45-2.07A17.29,17.29,0,0,1,94.15,2.93Z"/><path class="cls-1" d="M129.88,3.25a15.75,15.75,0,0,1,6,5.88,16.54,16.54,0,0,1,2.2,8.5,16.48,16.48,0,0,1-2.2,8.49,15.76,15.76,0,0,1-6,5.91,17.28,17.28,0,0,1-16.62,0,15.89,15.89,0,0,1-6-5.91A16.31,16.31,0,0,1,105,17.63a16.37,16.37,0,0,1,2.23-8.5,15.81,15.81,0,0,1,6-5.88,17.48,17.48,0,0,1,16.65,0Zm-13,9.13a7.87,7.87,0,0,0-1.63,5.25,7.79,7.79,0,0,0,1.63,5.2,6.59,6.59,0,0,0,9.32,0,7.79,7.79,0,0,0,1.63-5.2,7.87,7.87,0,0,0-1.63-5.25,6.59,6.59,0,0,0-9.32,0Z"/><path class="cls-1" d="M150.14,1.68l6.63,22.13,6.59-22.13h10.72L163.27,33.85h-13L139.42,1.68Z"/><path class="cls-1" d="M186.43,1.68V33.85H176.35V1.68Z"/><path class="cls-1" d="M219.05,25.94a14.66,14.66,0,0,1-5.84,5.79,17.83,17.83,0,0,1-8.83,2.12H191V1.68h13.4a18.25,18.25,0,0,1,8.83,2.05,14.27,14.27,0,0,1,5.84,5.68,16.56,16.56,0,0,1,2,8.26A16.76,16.76,0,0,1,219.05,25.94Zm-10.18-3a6.88,6.88,0,0,0,2-5.32,6.87,6.87,0,0,0-2-5.31,7.6,7.6,0,0,0-5.4-1.86h-2.41V24.85h2.41A7.6,7.6,0,0,0,208.87,23Z"/><path class="cls-1" d="M253.6,29.35a9.74,9.74,0,0,1-4.16,3.52A15,15,0,0,1,243,34.16a15.88,15.88,0,0,1-9.52-2.7,9.94,9.94,0,0,1-4.07-7.93h10.72c.16,1.85,1,2.78,2.46,2.78a1.88,1.88,0,0,0,1.25-.41,1.51,1.51,0,0,0,.47-1.18,2,2,0,0,0-1.15-1.8,22.82,22.82,0,0,0-3.75-1.52,35.06,35.06,0,0,1-5.07-2,10.06,10.06,0,0,1-3.52-3.08,8.8,8.8,0,0,1-1.5-5.32,8.77,8.77,0,0,1,1.62-5.34,9.94,9.94,0,0,1,4.4-3.34,16.71,16.71,0,0,1,6.29-1.13q5.78,0,9.18,2.68a10.15,10.15,0,0,1,3.73,7.72H243.63c-.15-1.69-.85-2.54-2.09-2.54a1.5,1.5,0,0,0-1,.38,1.55,1.55,0,0,0-.41,1.16,1.93,1.93,0,0,0,1.16,1.7,24.66,24.66,0,0,0,3.61,1.53A38.44,38.44,0,0,1,250,15.92a10.69,10.69,0,0,1,3.54,3.14A8.72,8.72,0,0,1,255,24.35,9.07,9.07,0,0,1,253.6,29.35Z"/><path class="cls-1" d="M285.69,8.22V33.85H275.61V29.94a9.06,9.06,0,0,1-3.16,2.95,9.24,9.24,0,0,1-4.7,1.14,8.51,8.51,0,0,1-6.88-3,12.08,12.08,0,0,1-2.48-8V8.22h10V21.81a4.1,4.1,0,0,0,1,2.88,3.75,3.75,0,0,0,5.25,0,4.18,4.18,0,0,0,.95-2.88V8.22Z"/><path class="cls-1" d="M312.77,9.47A10.6,10.6,0,0,1,316.56,14,16.37,16.37,0,0,1,318,21a16.36,16.36,0,0,1-1.39,7,10.6,10.6,0,0,1-3.79,4.55,9.75,9.75,0,0,1-5.41,1.56,8.56,8.56,0,0,1-4.29-1,7,7,0,0,1-2.75-2.79V46.11H290.24V8.22h10.08v3.5a7,7,0,0,1,2.75-2.79,8.56,8.56,0,0,1,4.29-1A9.75,9.75,0,0,1,312.77,9.47Zm-11.45,8.39a4.48,4.48,0,0,0-1,3.18,4.51,4.51,0,0,0,1,3.18,3.74,3.74,0,0,0,5.36,0A4.52,4.52,0,0,0,307.73,21a4.48,4.48,0,0,0-1.05-3.18,3.72,3.72,0,0,0-5.36,0Z"/><path class="cls-1" d="M343.66,9.47A10.6,10.6,0,0,1,347.45,14a16.37,16.37,0,0,1,1.39,7,16.36,16.36,0,0,1-1.39,7,10.6,10.6,0,0,1-3.79,4.55,9.75,9.75,0,0,1-5.41,1.56,8.56,8.56,0,0,1-4.29-1,7,7,0,0,1-2.75-2.79V46.11H321.13V8.22h10.08v3.5A7,7,0,0,1,334,8.93a8.56,8.56,0,0,1,4.29-1A9.75,9.75,0,0,1,343.66,9.47Zm-11.45,8.39a4.48,4.48,0,0,0-1,3.18,4.51,4.51,0,0,0,1,3.18,3.74,3.74,0,0,0,5.36,0A4.52,4.52,0,0,0,338.62,21a4.48,4.48,0,0,0-1.05-3.18,3.72,3.72,0,0,0-5.36,0Z"/><path class="cls-1" d="M371.14,9.5A11.7,11.7,0,0,1,376,14.06a13.5,13.5,0,0,1,1.75,7A13.46,13.46,0,0,1,376,28a11.7,11.7,0,0,1-4.84,4.56,16,16,0,0,1-13.9,0A11.76,11.76,0,0,1,352.4,28a13.56,13.56,0,0,1-1.74-7,13.59,13.59,0,0,1,1.74-7,11.76,11.76,0,0,1,4.84-4.56,16,16,0,0,1,13.9,0Zm-9.31,8.24a4.92,4.92,0,0,0-.95,3.3,5,5,0,0,0,.93,3.29,3,3,0,0,0,2.38,1.11,3,3,0,0,0,2.37-1.11,5,5,0,0,0,.95-3.29,5,5,0,0,0-.95-3.3,3.07,3.07,0,0,0-4.73,0Z"/><path class="cls-1" d="M394.77,9.38A8.86,8.86,0,0,1,399.4,8V18.81h-2.86a7,7,0,0,0-4.2,1A4.14,4.14,0,0,0,391,23.35v10.5H380.91V8.22H391V13A12.36,12.36,0,0,1,394.77,9.38Z"/><path class="cls-1" d="M418.07,25.26v8.59h-3.82q-10.53,0-10.54-10.5V16.63h-3.17V8.22h3.17V2.05H413.8V8.22H418v8.41H413.8v6.9a1.73,1.73,0,0,0,.43,1.32,2.07,2.07,0,0,0,1.43.41Z"/><path class="cls-2" d="M62,30l-.1.07A16.92,16.92,0,0,1,37,7.78,16.47,16.47,0,0,1,47.64.43,18.92,18.92,0,0,1,51.14,0,17,17,0,0,1,61.89,3.82S55.74,10,55.74,10A8.24,8.24,0,1,0,53,25a8.7,8.7,0,0,0,2.89-1.17Z"/><path class="cls-2" d="M30.82,1.34V33.48H20.74L10.08,17.32V33.48H0V1.34H10.08L20.74,17.78V1.34Z"/><line class="cls-3" x1="61.89" y1="3.82" x2="55.74" y2="10.01"/><line class="cls-3" x1="61.93" y1="30.03" x2="56.49" y2="24.42"/></g></g></svg>